<svg xmlns="http://www.w3.org/2000/svg" viewBox="0 0 32 32" width="32" height="32">
  <!-- Asymmetric rounded rectangle background matching the CSS .mark class -->
  <path d="M 10 0 H 22 A 10 10 0 0 1 32 10 V 22 A 10 10 0 0 1 22 32 H 3 A 3 3 0 0 1 0 29 V 10 A 10 10 0 0 1 10 0 Z" fill="#211713" />
  <!-- Exact Playwrite US Trad Capital L vector outline -->
  <path d="M 17.59 24.90 L 17.59 24.90 Q 16.68 24.90 15.83 24.63 Q 14.99 24.37 14.19 23.98 Q 13.38 23.59 12.66 23.19 Q 11.94 22.78 11.29 22.52 Q 10.65 22.26 10.09 22.26 L 10.09 22.26 Q 9.81 22.26 9.62 22.41 Q 9.42 22.56 9.42 22.85 L 9.42 22.85 Q 9.42 23.13 9.73 23.37 Q 10.03 23.60 10.51 23.60 L 10.51 23.60 Q 10.84 23.60 11.13 23.43 Q 11.43 23.26 11.68 22.85 Q 11.94 22.44 12.16 21.76 L 12.16 21.76 L 14.73 14.12 Q 15.30 12.37 16.02 11.05 Q 16.73 9.72 17.55 8.82 Q 18.37 7.92 19.31 7.46 Q 20.26 7.00 21.28 7.00 L 21.28 7.00 Q 22.12 7.00 22.78 7.32 Q 23.43 7.65 23.81 8.22 Q 24.18 8.80 24.18 9.55 L 24.18 9.55 Q 24.18 10.51 23.75 11.32 Q 23.33 12.13 22.55 12.73 Q 21.77 13.33 20.73 13.65 Q 19.68 13.98 18.44 13.98 L 18.44 13.98 Q 17.10 13.98 15.97 13.80 Q 14.83 13.63 13.79 13.24 Q 12.76 12.84 11.69 12.22 L 11.69 12.22 Q 11.43 12.06 11.40 11.81 Q 11.38 11.57 11.57 11.26 L 11.57 11.26 Q 11.73 10.98 11.94 10.93 Q 12.16 10.89 12.42 11.05 L 12.42 11.05 Q 13.28 11.52 14.20 11.86 Q 15.13 12.20 16.17 12.37 Q 17.22 12.55 18.46 12.55 L 18.46 12.55 Q 19.35 12.55 20.10 12.32 Q 20.85 12.09 21.41 11.70 Q 21.97 11.31 22.27 10.78 Q 22.58 10.24 22.58 9.60 L 22.58 9.60 Q 22.58 9.25 22.42 9.00 Q 22.26 8.74 21.95 8.61 Q 21.63 8.48 21.23 8.48 L 21.23 8.48 Q 20.47 8.48 19.77 8.88 Q 19.07 9.27 18.42 10.03 Q 17.78 10.78 17.21 11.90 Q 16.65 13.02 16.14 14.50 L 16.14 14.50 L 13.65 21.93 Q 13.24 23.12 12.76 23.79 Q 12.28 24.46 11.71 24.73 Q 11.13 25.00 10.45 25.00 L 10.45 25.00 Q 9.70 25.00 9.10 24.69 Q 8.50 24.39 8.16 23.90 Q 7.82 23.41 7.82 22.87 L 7.82 22.87 Q 7.82 22.24 8.10 21.80 Q 8.38 21.35 8.86 21.11 Q 9.34 20.87 9.93 20.87 L 9.93 20.87 Q 10.72 20.87 11.48 21.12 Q 12.25 21.37 13.02 21.76 Q 13.78 22.14 14.56 22.53 Q 15.34 22.92 16.13 23.18 Q 16.92 23.43 17.76 23.43 L 17.76 23.43 Q 18.72 23.43 19.47 23.07 Q 20.22 22.72 20.85 22.04 Q 21.48 21.37 22.03 20.43 L 22.03 20.43 Q 22.19 20.13 22.44 20.10 Q 22.68 20.06 23.01 20.22 L 23.01 20.22 Q 23.29 20.40 23.37 20.60 Q 23.45 20.81 23.31 21.08 L 23.31 21.08 Q 22.52 22.40 21.67 23.24 Q 20.81 24.08 19.81 24.49 Q 18.81 24.90 17.59 24.90 Z" fill="#f47f54" />
</svg>